<svg xmlns="http://www.w3.org/2000/svg" viewBox="0 0 363.41 99.26"><defs><style>.cls-1,.cls-2,.cls-3{isolation:isolate;}.cls-2,.cls-3{font-size:42.4px;font-family:AgencyFB-Bold, Agency FB;font-weight:700;}.cls-2,.cls-3,.cls-4{fill:#f9bd00;}.cls-2{letter-spacing:0.12em;}.cls-3{letter-spacing:0.29em;}</style></defs><title>Asset 1</title><g id="Layer_2" data-name="Layer 2"><g id="Layer_1-2" data-name="Layer 1"><g id="Layer_2-2" data-name="Layer 2"><g id="Layer_1-2-2" data-name="Layer 1-2"><g class="cls-1"><text class="cls-2" transform="translate(68.85 39.89)">PHOTOGRAPHIE </text><text class="cls-3" transform="translate(68.85 90.77)">MARRAKECH</text></g><path class="cls-4" d="M27.66,12.45a12.32,12.32,0,1,1-12.5,12.26,12.33,12.33,0,0,1,12.5-12.26Zm.06,1.26a11.05,11.05,0,0,0-.3,22.1A11.22,11.22,0,0,0,38.86,25.12,11.18,11.18,0,0,0,27.93,13.71Z"/><path class="cls-4" d="M22.5,24.05C21.71,22,20.9,20,20.14,18a.69.69,0,0,1,.1-.62c3.29-3.85,9.5-3.94,13.51-.87l.13.15C29.22,18.16,25.12,19.53,22.5,24.05Z"/><path class="cls-4" d="M35.91,31c-1.54-4.58-3.34-8.26-7.71-10.89a25.43,25.43,0,0,1,6-2.49.92.92,0,0,1,.67.21A8.84,8.84,0,0,1,38,25.34,10,10,0,0,1,35.91,31Z"/><path class="cls-4" d="M21.4,33c4.61-1.63,8.39-3.52,11-7.81a2.14,2.14,0,0,1,.28.39c.76,1.79,1.52,3.57,2.24,5.37a.81.81,0,0,1-.14.72A9.92,9.92,0,0,1,21.59,33.1.69.69,0,0,0,21.4,33Z"/><path class="cls-4" d="M19.4,18.59c1.54,4.52,3.29,8.47,7.8,11.15-1.49.66-2.8,1.26-4.13,1.81a11.49,11.49,0,0,1-1.89.59.92.92,0,0,1-.72-.16,9.77,9.77,0,0,1-1.34-13.06C19.19,18.82,19.28,18.73,19.4,18.59Z"/><path class="cls-4" d="M30.25,24.77a2.6,2.6,0,1,1-2.61-2.59h0a2.53,2.53,0,0,1,2.57,2.49Z"/><path class="cls-4" d="M17.48.31c-.16.18-.9,1.57-1.66,3.07L14.45,6.14h-11l-1,.5A4.81,4.81,0,0,0,.19,9.35c-.25.92-.25,29.65,0,30.57a4.79,4.79,0,0,0,2.33,2.71l1,.51H52.13l1-.51a4.9,4.9,0,0,0,2.33-2.71c.11-.43.18-5.77.18-15.3,0-16.06,0-15.54-1.08-16.9A5.35,5.35,0,0,0,53,6.61l-.94-.47H41.16L39.79,3.38C39,1.88,38.29.49,38.13.31S37.15,0,27.8,0,17.73,0,17.48.31ZM37.37,6c1,2.08,1.48,2.82,1.9,3.07s1,.35,6.37.35h5.83l.43.45.45.43V39l-.45.44-.43.45H4.14l-.43-.45L3.26,39V10.27l.45-.43.43-.45H10c5.36,0,5.87,0,6.37-.35s.87-1,1.9-3.07L19.6,3.25H36Z"/><path class="cls-4" d="M46.92,12.51a1.63,1.63,0,0,0-.37,2.28,1.66,1.66,0,0,0,1.13.66A1.61,1.61,0,0,0,49,12.72,1.81,1.81,0,0,0,46.92,12.51Z"/><path class="cls-4" d="M22.08,46.6a1.53,1.53,0,0,0-.34,1.84c.29.69,1,1,2.33,1a1.71,1.71,0,0,1,.67.08s-5.54,9.2-12.31,20.35C3.22,85,.1,90.32.05,90.82a1.09,1.09,0,0,0,.39,1.12,2,2,0,0,0,2.08.31c.18-.11,5.92-9.41,12.76-20.67s12.47-20.5,12.52-20.5,5.69,9.22,12.53,20.5S52.91,92.14,53.09,92.25a1.71,1.71,0,0,0,2.31-.67,1.82,1.82,0,0,0,.2-.65c0-.47-2.58-4.86-12.36-21C36.43,58.74,30.87,49.53,30.87,49.5a1.6,1.6,0,0,1,.69-.08c1.28,0,2-.32,2.31-1a1.53,1.53,0,0,0-.34-1.84c-.37-.4-.4-.4-5.73-.4S22.44,46.2,22.08,46.6Z"/><path class="cls-4" d="M27.15,57c-1,.41-1-.49-1,17.74V91.53l.45.43A1.7,1.7,0,0,0,29,92l.45-.43V58L29,57.5A1.74,1.74,0,0,0,27.15,57Z"/></g></g></g></g></svg>